<?xml version="1.0" encoding="UTF-8" standalone="no"?>
<!-- Created with Inkscape (http://www.inkscape.org/) -->

<svg
   version="1.1"
   id="svg2"
   width="426.66666"
   height="288.13333"
   viewBox="0 0 426.66666 288.13333"
   sodipodi:docname="bandera-tierra-del-fuego-seeklogo.ai"
   xmlns:inkscape="http://www.inkscape.org/namespaces/inkscape"
   xmlns:sodipodi="http://sodipodi.sourceforge.net/DTD/sodipodi-0.dtd"
   xmlns="http://www.w3.org/2000/svg"
   xmlns:svg="http://www.w3.org/2000/svg">
  <defs
     id="defs6" />
  <sodipodi:namedview
     id="namedview4"
     pagecolor="#ffffff"
     bordercolor="#000000"
     borderopacity="0.25"
     inkscape:showpageshadow="2"
     inkscape:pageopacity="0.0"
     inkscape:pagecheckerboard="0"
     inkscape:deskcolor="#d1d1d1" />
  <g
     id="g8"
     inkscape:groupmode="layer"
     inkscape:label="bandera-tierra-del-fuego-seeklogo"
     transform="matrix(1.3333333,0,0,-1.3333333,0,288.13333)">
    <path
       d="m 0,0.1 h 320 v 216 H 0 Z"
       style="fill:#ffffff;fill-opacity:1;fill-rule:nonzero;stroke:none"
       id="path10" />
    <g
       id="g12"
       transform="translate(0,216.0999)">
      <path
         d="m 0,0 v -216 h 320 l -38,41.4 -107.5,48.9 -79.9,-0.1 37.7,24.6 -69.8,71 z"
         style="fill:#fd9730;fill-opacity:1;fill-rule:nonzero;stroke:none"
         id="path14" />
    </g>
    <g
       id="g16"
       transform="translate(63.9,216.0999)">
      <path
         d="m 0,0 78.7,-96.3 44.499,6.6 -7.399,-29.1 116.701,-33.6 23.599,-63.334 V 0 Z"
         style="fill:#1983dd;fill-opacity:1;fill-rule:nonzero;stroke:none"
         id="path18" />
    </g>
    <g
       id="g20"
       transform="translate(215.7002,191.4)">
      <path
         d="M 0,0 7.399,4.3 5.7,12.8 12,7 l 7.399,4.3 -3.5,-7.9 6.301,-5.8 -8.5,0.9 -3.5,-7.9 -1.7,8.5 z"
         style="fill:#ffffff;fill-opacity:1;fill-rule:nonzero;stroke:none"
         id="path22" />
    </g>
    <g
       id="g24"
       transform="translate(202.4004,142.2999)">
      <path
         d="M 0,0 7.399,4.3 5.699,12.8 12,7 l 7.399,4.3 -3.5,-7.9 6.3,-5.8 -8.5,0.9 -3.5,-7.9 -1.699,8.5 z"
         style="fill:#ffffff;fill-opacity:1;fill-rule:nonzero;stroke:none"
         id="path26" />
    </g>
    <g
       id="g28"
       transform="translate(270,82.0001)">
      <path
         d="M 0,0 7.4,4.3 5.7,12.8 12,7 l 7.4,4.3 -3.5,-7.9 6.3,-5.8 -8.5,0.9 -3.5,-7.9 -1.7,8.5 z"
         style="fill:#ffffff;fill-opacity:1;fill-rule:nonzero;stroke:none"
         id="path30" />
    </g>
    <g
       id="g32"
       transform="translate(268,184.6998)">
      <path
         d="M 0,0 7.4,4.3 5.7,12.8 12,7 l 7.4,4.3 -3.5,-7.9 6.3,-5.8 -8.5,0.9 -3.5,-7.9 -1.7,8.5 z"
         style="fill:#ffffff;fill-opacity:1;fill-rule:nonzero;stroke:none"
         id="path34" />
    </g>
    <g
       id="g36"
       transform="translate(269.2998,150.6998)">
      <path
         d="M 0,0 3.9,2.3 3,6.8 6.3,3.7 10.2,6 8.4,1.9 11.7,-1.2 7.3,-0.7 5.5,-4.8 4.601,-0.3 Z"
         style="fill:#ffffff;fill-opacity:1;fill-rule:nonzero;stroke:none"
         id="path38" />
    </g>
    <g
       id="g40"
       transform="translate(0,216.0999)">
      <path
         d="m 0,0 v -0.045 l 62.3,-30.155 70,-70.9 -37.8,-24.7 80.1,0.2 107.6,-49.2 37.8,-40.975 v 0.483 l -23.3,62.792 -117,33.6 7.399,29.3 L 142.6,-96.1 63.882,0 Z"
         style="fill:#ffffff;fill-opacity:1;fill-rule:nonzero;stroke:none"
         id="path42" />
    </g>
  </g>
</svg>
